:SAMPLES-PER-SECOND 30
:FULLY-SPECIFIED
:DEGREES
232
root  -7.606177443 35.85999857 0.4337844417 4.38999939 -39.21800232 -5.533996582
lowerback  13.69190025 -1.006549954 -2.298239946
upperback  3.84555006 -1.709179997 -0.02797459997
thorax  -3.554160118 -0.8668980002 1.550029993
lowerneck  -3.690000057 4.766679764 -4.781449795
upperneck  7.161809921 6.532090187 1.83502996
head  2.701410055 3.168040037 1.629789948
lclavicle  0 -9.442270133e-015 7.951389973e-016
lhumerus  -6.163859844 -7.26760006 81.87809753
lradius  2.792174585e-031 -2.161620948e-031 142.2539978
lwrist  -1.412450015e-030 -0 12.09589958
lhand  -1.496451383e-031 -27.76390076 20.11240005
lfingers  90 7.125020027 -90
lthumb  89.89689403 5.08795885 91.16245106
rclavicle  0 -9.442270133e-015 7.951389973e-016
rhumerus  -30.76650047 28.46249962 -90.11060333
rradius  -2.231010528e-031 2.737048786e-031 129.1840057
rwrist  7.062250077e-031 -3.531125038e-031 2.322060108
rhand  -7.920061211e-032 -33.2840004 9.303460121
rfingers  -90 -7.125020027 -90
rthumb  -92.93752616 -24.25625642 -97.11982154
rfemur  -15.99960041 22.1067009 6.267610073
rtibia  -0 0 52.91680145
rfoot  -0 -34.26150131 -10.9151001
rtoes  5.373923086 19.29304026 -105.8922705
lfemur  -23.82600021 9.92566967 -3.46043992
ltibia  -0 0 78.31800079
lfoot  5.151592013e-032 -24.44560051 -0.1872929931
ltoes  -4.250644065 -19.5611806 -102.515957
233
root  -7.636355603 35.85800111 0.4462666868 4.363006592 -38.75999451 -5.475997925
lowerback  13.46179962 -1.098019958 -2.380850077
upperback  3.603189945 -1.821490049 0.2160180062
thorax  -3.66760993 -0.9158110023 1.867580056
lowerneck  -3.552129984 4.800280094 -4.801479816
upperneck  7.317530155 6.581230164 1.683040023
head  2.730720043 3.183209896 1.584409952
lclavicle  0 -9.442270133e-015 7.951389973e-016
lhumerus  -6.173719883 -7.291920185 82.72200012
lradius  2.781501769e-031 -2.175337203e-031 141.9720001
lwrist  -7.062250077e-031 -0 12.66909981
lhand  -1.496451383e-031 -27.76390076 20.11240005
lfingers  90 7.125020027 -90
lthumb  89.89689403 5.08795885 91.16245106
rclavicle  0 -9.442270133e-015 7.951389973e-016
rhumerus  -31.06439972 28.87509918 -91.1190033
rradius  -2.268866419e-031 2.705751136e-031 129.9810028
rwrist  1.059337512e-030 -0 2.264559984
rhand  -7.920061211e-032 -33.2840004 9.303460121
rfingers  -90 -7.125020027 -90
rthumb  -92.93752616 -24.25625642 -97.11982154
rfemur  -15.77130032 22.45089912 6.481349945
rtibia  -0 0 53.10789871
rfoot  -0 -34.2887001 -11.58500004
rtoes  5.373923086 19.29304026 -105.8922705
lfemur  -23.28249931 9.349510193 -3.959350109
ltibia  -0 0 77.34519958
lfoot  4.914112644e-032 -26.07620049 1.511800051
ltoes  -4.250644065 -19.5611806 -102.515957
234
root  -7.654266658 35.86911179 0.4708399923 4.229995728 -38.04100037 -5.29699707
lowerback  13.13210011 -1.197100043 -2.356139898
upperback  3.467979908 -1.930209994 0.392042011
thorax  -3.61913991 -0.967378974 2.047430038
lowerneck  -3.465729952 4.734839916 -4.962900162
upperneck  7.418960094 6.507090092 1.569399953
head  2.750509977 3.135720015 1.573019981
lclavicle  0 -9.442270133e-015 7.951389973e-016
lhumerus  -5.977759838 -7.599870205 83.57640076
lradius  2.772632465e-031 -2.18663057e-031 141.7389984
lwrist  -7.062250077e-031 1.765562519e-031 13.00669956
lhand  -1.496451383e-031 -27.76390076 20.11240005
lfingers  90 7.125020027 -90
lthumb  89.89689403 5.08795885 91.16245106
rclavicle  0 -9.442270133e-015 7.951389973e-016
rhumerus  -31.14209938 29.22109985 -92.01329803
rradius  -2.300865117e-031 2.678593615e-031 130.6620026
rwrist  1.059337512e-030 -0 2.560349941
rhand  -7.920061211e-032 -33.2840004 9.303460121
rfingers  -90 -7.125020027 -90
rthumb  -92.93752616 -24.25625642 -97.11982154
rfemur  -15.38430023 22.69989967 6.637869835
rtibia  -0 0 53.31439972
rfoot  -0 -34.17660141 -12.1303997
rtoes  5.373923086 19.29304026 -105.8922705
lfemur  -22.72680092 8.513580322 -4.484950066
ltibia  -0 0 76.25050354
lfoot  4.972877553e-032 -27.4272995 2.68166995
ltoes  -4.250644065 -19.5611806 -102.515957
235
root  -7.659422506 35.90288838 0.5016177658 4.022994995 -37.18200684 -5.063995361
lowerback  12.85289955 -1.214980006 -2.251140118
upperback  3.384059906 -1.927340031 0.479636997
thorax  -3.555449963 -0.9652910233 2.072160006
lowerneck  -3.579629898 4.556729794 -4.958630085
upperneck  7.661640167 6.287640095 1.419510007
head  2.866780043 3.016769886 1.529000044
lclavicle  0 -9.442270133e-015 7.951389973e-016
lhumerus  -5.590429783 -8.158450127 84.39929962
lradius  2.76283499e-031 -2.198996784e-031 141.4830017
lwrist  -1.412450015e-030 -1.765562519e-031 13.51319981
lhand  -1.496451383e-031 -27.76390076 20.11240005
lfingers  90 7.125020027 -90
lthumb  89.89689403 5.08795885 91.16245106
rclavicle  0 -9.442270133e-015 7.951389973e-016
rhumerus  -31.12380028 29.40369987 -92.85669708
rradius  -2.330965354e-031 2.652441244e-031 131.3090057
rwrist  1.059337512e-030 -0 2.861150026
rhand  -7.920061211e-032 -33.2840004 9.303460121
rfingers  -90 -7.125020027 -90
rthumb  -92.93752616 -24.25625642 -97.11982154
rfemur  -14.97739983 22.87730026 6.74793005
rtibia  -0 0 53.56930161
rfoot  -0 -33.79999924 -12.38370037
rtoes  5.373923086 19.29304026 -105.8922705
lfemur  -22.15270042 7.531899929 -4.958439827
ltibia  -0 0 75.03749847
lfoot  5.030315504e-032 -28.66239929 3.422139883
ltoes  -4.250644065 -19.5611806 -102.515957
236
root  -7.665422395 35.98666754 0.548297777 3.927001953 -36.1499939 -4.95300293
lowerback  12.55720043 -1.171079993 -2.051729918
upperback  3.300410032 -1.83118999 0.5674800277
thorax  -3.489969969 -0.9174680114 2.029360056
lowerneck  -3.803260088 4.314559937 -4.845739841
upperneck  7.981359959 5.977220058 1.348880053
head  3.034070015 2.857340097 1.494500041
lclavicle  0 -9.442270133e-015 7.951389973e-016
lhumerus  -5.065320015 -8.878990173 85.1713028
lradius  2.752016874e-031 -2.212520545e-031 141.2019958
lwrist  -7.062250077e-031 1.765562519e-031 14.0152998
lhand  -1.496451383e-031 -27.76390076 20.11240005
lfingers  90 7.125020027 -90
lthumb  89.89689403 5.08795885 91.16245106
rclavicle  0 -9.442270133e-015 7.951389973e-016
rhumerus  -31.03450012 29.4564991 -93.4878006
rradius  -2.355768053e-031 2.630437401e-031 131.8470001
rwrist  3.531125038e-031 -3.531125038e-031 3.008480072
rhand  -7.920061211e-032 -33.2840004 9.303460121
rfingers  -90 -7.125020027 -90
rthumb  -92.93752616 -24.25625642 -97.11982154
rfemur  -14.61709976 22.9829998 7.012700081
rtibia  -0 0 53.89960098
rfoot  -0 -33.15129852 -12.66889954
rtoes  5.373923086 19.29304026 -105.8922705
lfemur  -21.6779995 6.405109882 -5.237720013
ltibia  -0 0 73.71790314
lfoot  5.071196818e-032 -29.49629974 4.036829948
ltoes  -4.250644065 -19.5611806 -102.515957
237
root  -7.673622492 36.11155532 0.6061577891 3.710998535 -34.76100159 -4.606002808
lowerback  12.20759964 -1.191570044 -2.025409937
upperback  3.258369923 -1.841789961 0.6521090269
thorax  -3.34032011 -0.9233419895 2.094500065
lowerneck  -3.978899956 4.063940048 -4.920489788
upperneck  8.13850975 5.663889885 1.288669944
head  3.132159948 2.694610119 1.48842001
lclavicle  0 -9.442270133e-015 7.951389973e-016
lhumerus  -4.429900169 -9.659469604 85.97409821
lradius  2.737788952e-031 -2.230102171e-031 140.8350067
lwrist  -1.412450015e-030 -0 14.29769993
lhand  -1.496451383e-031 -27.76390076 20.11240005
lfingers  90 7.125020027 -90
lthumb  89.89689403 5.08795885 91.16245106
rclavicle  0 -9.442270133e-015 7.951389973e-016
rhumerus  -30.73250008 29.60169983 -93.72470093
rradius  -2.375351251e-031 2.612766823e-031 132.2749939
rwrist  7.062250077e-031 -3.531125038e-031 3.346699953
rhand  -7.920061211e-032 -33.2840004 9.303460121
rfingers  -90 -7.125020027 -90
rthumb  -92.93752616 -24.25625642 -97.11982154
rfemur  -14.19950008 22.77440071 7.151659966
rtibia  -0 0 54.33620071
rfoot  -0 -32.29090118 -13.11139965
rtoes  5.373923086 19.29304026 -105.8922705
lfemur  -21.29990005 4.967919827 -5.644639969
ltibia  -0 0 72.28369904
lfoot  5.091724381e-032 -29.90209961 4.267590046
ltoes  -4.250644065 -19.5611806 -102.515957
